<svg width="36" height="36" viewBox="0 0 36 36" fill="none" xmlns="http://www.w3.org/2000/svg">
<path d="M9.52662 5.15122C3.09724 8.36591 1.19765 9.34227 1.10466 9.48175C0.998392 9.6478 0.99175 10.1459 1.00503 17.8771L1.02496 26.0998L1.19101 26.2592C1.45668 26.5116 17.7825 35 18.0017 35C18.108 35 18.4401 34.8672 18.7456 34.7078C19.0445 34.5483 22.744 32.6156 26.9617 30.4171C31.1793 28.2186 34.7061 26.3456 34.7991 26.2592L34.9652 26.0998L34.9851 17.8971C34.9984 10.5976 34.9917 9.66772 34.8987 9.49503C34.8058 9.3157 33.7298 8.76442 26.4901 5.14458C21.3293 2.56087 18.1213 0.993378 18.0083 1.00002C17.9087 1.00002 14.1627 2.83319 9.52662 5.15122ZM25.3809 6.18072L32.7069 9.84041L29.5985 11.3946L26.4967 12.9488L19.1441 9.26921L11.7849 5.59623L14.8401 4.06194C16.5206 3.21842 17.9353 2.52766 17.9818 2.52766C18.0216 2.52102 21.3559 4.16822 25.3809 6.18072ZM24.8362 13.7459C24.8362 13.7658 23.2953 14.5495 21.4156 15.4927L17.9951 17.1997L10.6425 13.52L3.28321 9.84706L6.73701 8.11351L10.1908 6.38662L17.5102 10.053C21.5418 12.0655 24.8362 13.7259 24.8362 13.7459ZM9.85871 14.7222L17.2644 18.4284V25.7478C17.2644 29.7795 17.2445 33.0738 17.2246 33.0738C17.2047 33.0738 13.8571 31.3337 9.78565 29.2082L2.38655 25.3493V18.1827C2.38655 14.244 2.39984 11.0227 2.41976 11.0227C2.43969 11.0227 5.78722 12.6898 9.85871 14.7222ZM33.6036 18.1893V25.3493L26.2045 29.2149C22.1396 31.3337 18.7921 33.0738 18.7655 33.0738C18.7456 33.0738 18.7257 29.7795 18.7257 25.7478V18.4284L22.2127 16.6816C24.1322 15.7252 25.713 14.9414 25.7329 14.9414C25.7528 14.9414 25.7661 16.4358 25.7661 18.2624C25.7661 21.9088 25.7661 21.942 26.158 22.1412C26.4104 22.2741 26.5831 22.2741 26.8355 22.1412C27.2273 21.942 27.2273 21.9486 27.2273 17.8838V14.1776L30.369 12.6035C32.0892 11.74 33.5239 11.0293 33.5571 11.0293C33.5836 11.0227 33.6036 14.244 33.6036 18.1893Z" fill="black" stroke="black" stroke-width="0.6"/>
</svg>
