<svg width="38" height="33" viewBox="0 0 38 33" fill="none" xmlns="http://www.w3.org/2000/svg">
<path d="M16.5453 1.19594C16.417 1.32657 15.7399 2.59658 14.7634 4.56328L13.1882 7.72741V12.4881V17.2488L12.7819 17.2924C11.9979 17.3795 10.9287 17.5536 10.3942 17.6843L9.85246 17.8149L9.68853 17.4593C9.49609 17.0456 8.96864 16.5159 8.58375 16.3489C8.25589 16.2111 2.07627 14.9338 1.72701 14.9338C1.54882 14.9338 1.42053 14.9991 1.24234 15.1805L1 15.4273V21.7773C1 26.1098 1.02138 28.1927 1.0784 28.3451C1.12117 28.4684 1.24234 28.6281 1.34212 28.7007C1.52031 28.824 1.74127 28.8313 4.27869 28.8313C6.93728 28.8313 7.02994 28.824 7.35781 28.6716C7.76408 28.4829 8.27014 28.0185 8.45546 27.6701C8.52673 27.5323 8.61226 27.4161 8.63365 27.4161C8.66216 27.4161 9.13971 27.6339 9.70279 27.8951C13.6087 29.7239 17.2366 31.11 19.5745 31.6688C20.3015 31.843 20.5795 31.872 21.4918 31.872C22.4255 31.8793 22.6607 31.8503 23.345 31.6761C25.4262 31.1463 27.9922 30.1013 31.8625 28.2144C32.8247 27.7427 34.3928 26.9807 35.355 26.509C36.3172 26.0445 37.1796 25.5801 37.2794 25.4857L37.4576 25.3116V16.4723V7.64032L35.8682 4.48345C34.9915 2.74898 34.1932 1.254 34.1005 1.15966L33.9223 1H25.3407H16.752L16.5453 1.19594ZM21.5132 4.84631L20.943 7.1686H18.0563H15.1696L16.3386 4.84631L17.5004 2.52401H19.7883H22.0834L21.5132 4.84631ZM27.0798 2.79252C27.1226 2.94493 27.365 3.9319 27.6215 4.99145C27.8781 6.051 28.1062 6.97266 28.1276 7.03798C28.1632 7.16135 27.9993 7.1686 25.3478 7.1686C23.794 7.1686 22.5253 7.15409 22.5253 7.13232C22.5253 7.08152 23.5873 2.73447 23.6301 2.6111C23.6515 2.54578 24.0577 2.52401 25.3336 2.52401H27.0086L27.0798 2.79252ZM34.3286 4.84631L35.4761 7.13232L32.6251 7.15409C31.057 7.16135 29.7598 7.15409 29.7384 7.13958C29.7171 7.11055 28.598 2.65464 28.5838 2.53852C28.5838 2.53127 29.6173 2.53127 30.8789 2.53852L33.1739 2.5603L34.3286 4.84631ZM20.7434 10.594C20.7434 11.6826 20.7791 12.6187 20.8147 12.7711C20.8575 12.9163 20.9715 13.105 21.0784 13.1921C21.2566 13.3372 21.3421 13.3372 25.3478 13.3372H29.4248L29.6458 13.1122L29.8667 12.8945L29.881 10.8117L29.9024 8.7289H32.9316H35.9608L35.9822 15.6377C35.9893 20.413 35.9751 22.5538 35.9252 22.5538C35.8824 22.5538 35.7256 22.4885 35.5759 22.4087C34.6565 21.937 32.9957 21.7773 31.5132 22.0386C30.3728 22.2345 29.2538 22.4958 27.9779 22.8514C27.4148 23.0038 26.923 23.1344 26.8874 23.1344C26.8518 23.1344 26.7805 22.982 26.7377 22.7933C26.6237 22.3361 26.4883 22.0894 26.139 21.6975C25.3764 20.8556 24.0435 20.2823 21.4562 19.6872C19.9808 19.3534 19.2751 19.1067 17.9352 18.4753C16.3885 17.7423 15.6828 17.4738 14.9915 17.3649L14.685 17.3141V13.0034V8.69261H17.7142H20.7434V10.594ZM28.3699 10.2529V11.8132H25.3407H22.3115V10.2529V8.69261H25.3407H28.3699V10.2529ZM5.37634 17.2125C8.18461 17.7859 8.27727 17.8221 8.37705 18.2721C8.4412 18.5696 7.28653 26.6759 7.15111 26.9154C7.08696 27.0243 6.95866 27.1476 6.86601 27.1912C6.75196 27.242 5.95367 27.271 4.59943 27.271H2.49679V21.9733C2.49679 16.8715 2.50392 16.6755 2.62509 16.6755C2.70349 16.6755 3.93657 16.915 5.37634 17.2125ZM14.9344 18.918C15.5332 19.0631 15.9893 19.2518 17.6429 20.0356C18.819 20.5871 19.6244 20.8629 21.0285 21.175C23.9793 21.8426 25.3051 22.5248 25.3051 23.3884C25.3051 23.7005 25.1839 23.8383 24.7776 23.998C23.5873 24.448 20.665 24.0996 17.1084 23.0909C15.5332 22.6409 15.4049 22.6191 15.134 22.7498C14.8845 22.8659 14.685 23.1634 14.685 23.4247C14.685 23.6351 14.8703 23.9835 15.0271 24.0706C15.2267 24.1794 17.5788 24.8326 18.7121 25.0938C22.3471 25.9357 24.5923 25.9574 25.8824 25.1664C26.3386 24.8834 28.933 24.1432 31.1141 23.6714C33.1098 23.2433 34.9202 23.49 35.6686 24.2883C35.7826 24.4117 35.8682 24.5205 35.8468 24.535C35.7969 24.5786 30.4868 27.1839 29.8311 27.4887C25.5403 29.5062 22.7035 30.4642 21.2851 30.3698C19.3179 30.2392 15.0128 28.6934 9.87385 26.2695C9.05418 25.8776 8.94726 25.8123 8.96152 25.6599C8.9829 25.3914 9.76693 19.7743 9.80257 19.6002C9.83821 19.4332 10.0948 19.3389 11.1212 19.1067C12.6536 18.7728 14.0435 18.7003 14.9344 18.918Z" fill="black" stroke="black" stroke-width="0.5"/>
</svg>
