<svg width="36" height="36" viewBox="0 0 36 36" fill="none" xmlns="http://www.w3.org/2000/svg">
<path d="M17.4053 0.133602C17.2999 0.203919 17.1452 0.358616 17.0748 0.464091C16.9483 0.653946 16.9412 0.850833 16.9412 3.78304V6.89808L16.3295 6.84183C15.9849 6.8137 15.113 6.78557 14.3747 6.7926C12.9965 6.79963 12.2159 6.89105 11.0698 7.17935C5.18427 8.64897 0.810563 13.5922 0.0652048 19.6184C-0.0332387 20.4622 -0.0191753 22.4733 0.100363 23.3522C0.96526 29.8565 6.14761 35.0389 12.6378 35.8967C13.559 36.0163 15.5208 36.0374 16.3787 35.9319C21.0055 35.3553 25.0628 32.6411 27.3833 28.5486C28.1849 27.1353 28.8037 25.3562 29.0779 23.6335C29.2115 22.8108 29.2537 20.638 29.1553 19.6325L29.099 19.0559H32.214C35.1463 19.0559 35.3431 19.0488 35.533 18.9223C35.6385 18.8519 35.7932 18.6972 35.8635 18.5918C35.9901 18.3949 35.9971 18.0925 35.9971 9.52793C35.9971 0.96334 35.9901 0.660978 35.8635 0.464091C35.7932 0.358616 35.6385 0.203919 35.533 0.133602C35.3361 0.00703153 35.0338 -1.51135e-07 26.4692 -1.51135e-07C17.9046 -1.51135e-07 17.6022 0.00703153 17.4053 0.133602ZM22.5666 4.54247C22.5666 6.91214 22.5736 6.98246 22.7213 7.24966C22.8197 7.42545 22.9815 7.57312 23.1643 7.66453C23.4385 7.79813 23.6002 7.80517 26.4692 7.80517C29.3381 7.80517 29.4998 7.79813 29.7741 7.66453C29.9569 7.57312 30.1186 7.42545 30.2171 7.24966C30.3647 6.98246 30.3717 6.91214 30.3717 4.54247V2.1095H32.1297H33.8876V9.52793V16.9463H26.4692H19.0507V9.52793V2.1095H20.8087H22.5666V4.54247ZM28.1919 3.86742V5.62534H26.4692H24.7464V3.86742V2.1095H26.4692H28.1919V3.86742ZM15.6052 9.21853C15.8513 9.3451 16.2521 9.6545 16.4982 9.89357L16.9412 10.3295V12.4812V14.6259H13.6012C11.7659 14.6259 10.2611 14.6118 10.2611 14.5978C10.2611 14.436 10.9221 12.7344 11.2245 12.1156C12.5042 9.47167 14.1004 8.41692 15.6052 9.21853ZM9.66345 10.3295C9.13607 11.2226 8.41884 13.0016 8.11648 14.1477L7.98991 14.6259H6.06323H4.13655L4.42485 14.2181C5.26162 13.0438 6.37965 11.9468 7.62426 11.089C8.22899 10.6741 9.83221 9.80919 9.88846 9.87248C9.90253 9.88654 9.80408 10.0905 9.66345 10.3295ZM7.49066 17.1362C7.11798 19.7801 7.11798 23.303 7.49769 25.6867L7.53988 25.9469L5.26162 25.9328L2.98335 25.9117L2.75834 25.2156C2.30831 23.8515 2.20987 23.1483 2.20987 21.3412C2.2169 19.9348 2.23799 19.6325 2.3716 18.9926C2.51223 18.3597 2.906 17.0096 2.99742 16.8549C3.01148 16.8268 4.04514 16.8057 5.28271 16.8057H7.53988L7.49066 17.1362ZM16.9412 17.5933C16.9412 18.4652 17.0116 18.6621 17.4053 18.9223C17.5811 19.0348 17.7499 19.0559 18.671 19.0559H19.7328L19.775 19.527C19.9086 20.8771 19.782 23.9921 19.543 25.4195C19.5078 25.6516 19.4726 25.8625 19.4726 25.8906C19.4726 25.9258 17.2928 25.9469 14.6278 25.9469C10.0713 25.9469 9.77596 25.9399 9.7408 25.8203C9.64235 25.5039 9.48766 24.0132 9.41734 22.7615C9.35405 21.7349 9.35405 21.0247 9.41031 20.0333C9.48062 18.7957 9.64939 17.2206 9.7408 16.9253C9.77596 16.8127 10.008 16.8057 13.3621 16.8057H16.9412V17.5933ZM26.884 19.2457C27.2426 20.9966 27.0809 23.2608 26.4621 25.1875L26.216 25.9469H23.9448H21.6806L21.765 25.3C21.9478 24.0062 22.0181 22.5014 21.997 20.7927L21.9689 19.0559H24.4089H26.8418L26.884 19.2457ZM8.04616 28.3517C8.19383 29.076 8.86184 30.862 9.34702 31.8254C9.64235 32.4231 9.8744 32.9083 9.86034 32.9083C9.83924 32.9083 9.53688 32.7676 9.18529 32.5989C7.35003 31.7199 5.48663 30.1167 4.36156 28.4572L4.13655 28.1267H6.07026H7.99694L8.04616 28.3517ZM18.6921 28.9494C18.1085 30.6511 17.342 32.0152 16.4842 32.8731C15.4294 33.9419 14.3606 34.1177 13.327 33.4075C12.5464 32.8661 11.78 31.8535 11.1471 30.5105C10.8448 29.8706 10.2611 28.3236 10.2611 28.1619C10.2611 28.1408 12.223 28.1267 14.6208 28.1267H18.9734L18.6921 28.9494ZM25.0277 28.183C25.0277 28.2111 24.8167 28.5205 24.5565 28.865C23.6706 30.0464 22.3697 31.2347 21.1251 31.9941C20.6399 32.2965 19.3953 32.9223 19.3601 32.8872C19.3531 32.8801 19.5851 32.3809 19.8805 31.7832C20.3727 30.7988 20.8227 29.6174 21.1251 28.5275L21.2376 28.1267H23.1291C24.1768 28.1267 25.0277 28.1478 25.0277 28.183Z" fill="black"/>
</svg>
