<svg width="40" height="29" viewBox="0 0 40 29" fill="none" xmlns="http://www.w3.org/2000/svg">
<path d="M12.4543 1.36655C12.2588 1.56197 12.1912 1.68974 12.1912 1.88516C12.1912 2.043 12.8451 3.89193 13.7921 6.42482L15.4005 10.7014L11.9808 10.724C8.82404 10.739 8.54594 10.7315 8.32798 10.6037C8.07995 10.4684 8.03486 10.3482 6.70452 6.1768C6.4565 5.41016 6.23853 4.87653 6.02808 4.54582C5.45687 3.6439 4.56246 3.02759 3.47264 2.80211C2.44295 2.58415 1.70638 2.79459 1.25542 3.43345L1.02994 3.76416L1.0074 8.84498C0.984848 14.6097 0.977332 14.5346 1.55606 15.6845C2.11976 16.8044 2.90894 17.6086 3.99876 18.1723C5.14871 18.7661 4.80298 18.736 10.4024 18.7811L15.4081 18.8187L13.7996 23.1028C12.9203 25.4553 12.1912 27.4847 12.1912 27.5974C12.1912 27.8605 12.3716 28.2212 12.5595 28.3265C12.6497 28.3715 13.4915 28.4016 14.7316 28.4016C16.5355 28.4016 16.8135 28.3866 17.2344 28.2513C17.9034 28.0484 18.5497 27.65 18.9932 27.169C19.2111 26.9285 20.3987 25.0946 21.8493 22.7721L24.3295 18.7886L31.0564 18.7661L37.7832 18.7435L38.1364 18.5707C38.5874 18.3452 39.0384 17.8942 39.2638 17.4433C39.4893 16.9698 39.5419 16.0904 39.3615 15.5568C39.0985 14.7526 37.7757 13.2193 36.6708 12.4376C35.9643 11.9416 34.9872 11.453 34.1454 11.1825C32.8752 10.7766 32.3867 10.739 28.1627 10.739H24.3295L21.8117 6.71043C20.4287 4.49321 19.151 2.53905 18.9782 2.35867C18.5723 1.93025 17.971 1.53191 17.4148 1.32897C16.9939 1.17114 16.8211 1.15611 14.8368 1.13356L12.7098 1.11101L12.4543 1.36655ZM16.9714 2.98249C17.1818 3.0802 17.49 3.29817 17.6629 3.47104C17.8357 3.6439 18.9481 5.35003 20.1506 7.26661L22.3228 10.739L19.7673 10.724L17.2119 10.7014L15.8289 7.01859C15.0698 4.98927 14.3934 3.20798 14.3333 3.05014L14.213 2.75702L15.4005 2.78708C16.4377 2.80963 16.6332 2.83217 16.9714 2.98249ZM3.58538 4.60595C4.08144 4.83143 4.41214 5.11704 4.63762 5.51539C4.74285 5.68826 5.19381 7.00356 5.64477 8.43159C6.49408 11.1449 6.65191 11.4981 7.17803 11.8965C7.31332 12.0017 7.56135 12.1445 7.7267 12.2197C8.00479 12.3474 8.73384 12.3549 20.1957 12.4C31.1466 12.4376 32.4243 12.4527 32.8602 12.5654C33.9124 12.8285 34.7617 13.2043 35.6035 13.768C36.5881 14.4294 37.8208 15.895 37.8208 16.3986C37.8208 16.5489 37.7381 16.6992 37.5652 16.8721L37.3097 17.1276H31.3645C28.0951 17.1276 25.4194 17.1126 25.4194 17.09C25.4194 17.075 25.6524 16.6842 25.9455 16.2257C26.5843 15.211 26.6971 15.0006 26.6971 14.7976C26.6971 14.5346 26.4791 14.1513 26.2762 14.0536C26.0131 13.9333 25.5547 13.9483 25.3668 14.0836C25.2766 14.1438 23.5554 16.842 21.5336 20.0739C17.5426 26.4625 17.5952 26.3873 16.7609 26.6354C16.4904 26.7105 16.0394 26.7481 15.3028 26.7481H14.2356L16.4453 20.8631C17.6629 17.6312 18.655 14.8878 18.655 14.7751C18.655 14.512 18.4746 14.1513 18.2867 14.046C18.204 14.0085 17.986 13.9709 17.7906 13.9709C17.3472 13.9709 17.1668 14.1438 16.9037 14.8352C16.791 15.1284 16.558 15.7522 16.3776 16.2257L16.0544 17.09H10.9511C5.84018 17.09 5.84018 17.09 5.35164 16.9172C4.20921 16.5263 3.29226 15.6169 2.84882 14.4444C2.68346 14.016 2.68346 13.9483 2.66092 9.21326L2.63837 4.42557H2.92398C3.08181 4.42557 3.38245 4.50824 3.58538 4.60595Z" fill="black" stroke="black" stroke-width="0.6"/>
</svg>
